<?xml version="1.0" encoding="utf-8"?>
<!-- Generator: Adobe Illustrator 21.0.0, SVG Export Plug-In . SVG Version: 6.00 Build 0)  -->
<svg version="1.1" id="Ebene_1" xmlns="http://www.w3.org/2000/svg" xmlns:xlink="http://www.w3.org/1999/xlink" x="0px" y="0px"
	 viewBox="0 0 170.1 171" style="enable-background:new 0 0 170.1 171;" xml:space="preserve">
<style type="text/css">
	.st0{fill:#E84262;}
	.st1{fill:#F29100;}
	.st2{fill:#18AA9D;}
	.st3{fill:#BEE1DF;}
	.st4{fill:#FFF3D7;}
	.st5{fill:#FAD9D2;}
</style>
<path class="st0" d="M42.5,25.5c0-0.8,0.6-1.7,1.2-2.1L83.8,0.3c0.7-0.4,1.8-0.4,2.5,0l40.1,23.1c0.7,0.4,1.2,1.3,1.2,2.1v46.3
	c0,0.8-0.6,1.7-1.2,2.1L86.3,97.1c-0.7,0.4-1.8,0.4-2.5,0L43.7,73.9c-0.7-0.4-1.2-1.3-1.2-2.1V25.5z"/>
<path class="st1" d="M0,99.2c0-0.8,0.6-1.7,1.2-2.1l40.1-23.1c0.7-0.4,1.8-0.4,2.5,0l40.1,23.1c0.7,0.4,1.2,1.3,1.2,2.1v46.3
	c0,0.8-0.6,1.7-1.2,2.1l-40.1,23.1c-0.7,0.4-1.8,0.4-2.5,0L1.2,147.6c-0.7-0.4-1.2-1.3-1.2-2.1V99.2z"/>
<path class="st2" d="M85,99.2c0-0.8,0.6-1.7,1.2-2.1l40.1-23.1c0.7-0.4,1.8-0.4,2.5,0l40.1,23.1c0.7,0.4,1.2,1.3,1.2,2.1v46.3
	c0,0.8-0.6,1.7-1.2,2.1l-40.1,23.1c-0.7,0.4-1.8,0.4-2.5,0l-40.1-23.1c-0.7-0.4-1.2-1.3-1.2-2.1V99.2z"/>
<path class="st3" d="M86.3,97.1c-0.7,0.4-1.2,0.7-1.2,0.8c0,0,0,0.7,0,1.5v46.1c0,0.8,0.6,1.1,1.2,0.7l40.1-23.1
	c0.7-0.4,1.2-1.3,1.2-2.1V74.6c0-0.8-0.6-1.1-1.2-0.7L86.3,97.1z"/>
<path class="st4" d="M83.8,97.1c0.7,0.4,1.2,0.7,1.2,0.8c0,0,0,0.7,0,1.5v46.1c0,0.8-0.6,1.1-1.2,0.7L43.7,123
	c-0.7-0.4-1.2-1.3-1.2-2.1V74.6c0-0.8,0.6-1.1,1.2-0.7L83.8,97.1z"/>
<path class="st5" d="M43.7,72.5c-0.7,0.4-0.7,1,0,1.4l40.1,23.1c0.7,0.4,1.8,0.4,2.5,0l40.1-23.1c0.7-0.4,0.7-1,0-1.4L86.3,49.4
	c-0.7-0.4-1.8-0.4-2.5,0L43.7,72.5z"/>
</svg>
